<svg width="40" height="40" viewBox="0 0 40 40" fill="none" xmlns="http://www.w3.org/2000/svg">
<path d="M20 0C8.94653 0 0 8.94501 0 20C0 23.508 0.914917 26.9342 2.65228 29.9561L0.0753784 37.9584C-0.10437 38.5162 0.043335 39.1278 0.457764 39.5422C0.868225 39.9527 1.47827 40.1059 2.04163 39.9246L10.0439 37.3477C13.0658 39.0851 16.492 40 20 40C31.0535 40 40 31.055 40 20C40 8.94653 31.055 0 20 0ZM20 36.875C16.8314 36.875 13.7427 35.9909 11.0678 34.3182C10.683 34.0778 10.2051 34.0128 9.76044 34.1559L3.98376 36.0162L5.84412 30.2396C5.98511 29.8013 5.9256 29.3228 5.68146 28.9322C4.00909 26.2573 3.125 23.1686 3.125 20C3.125 10.6952 10.6952 3.125 20 3.125C29.3048 3.125 36.875 10.6952 36.875 20C36.875 29.3048 29.3048 36.875 20 36.875Z" fill="white"/>
<path d="M8.71898 21.3726C8.72055 21.4947 8.75465 21.6188 8.82398 21.7343C9.04354 22.1014 9.55486 22.2908 10.0454 22.1859L18.2486 20.4218L18.2894 23.609C18.2934 23.9288 18.5177 24.2192 18.8715 24.3617C19.2253 24.5042 19.649 24.4744 19.9703 24.285L30.8436 17.8735C31.2392 17.6396 31.3879 17.2207 31.2066 16.8588C31.0252 16.4947 30.5602 16.2783 30.0789 16.3352L23.1542 17.144L23.1118 13.8346C23.1077 13.5114 22.8792 13.2188 22.5212 13.0786C22.1631 12.9373 21.7352 12.9718 21.4154 13.1669L9.14262 20.6758C8.8649 20.8452 8.71558 21.1065 8.71898 21.3726Z" fill="white"/>
</svg>
