<svg width="50" height="91" viewBox="0 0 50 91" fill="none" xmlns="http://www.w3.org/2000/svg">
<g clip-path="url(#clip0)">
<path d="M1.83058 20.7373C4.27134 18.2965 8.22863 18.2965 10.6694 20.7373C13.1102 23.178 13.1102 27.1353 10.6694 29.5761C8.22863 32.0169 4.27134 32.0169 1.83058 29.5761C-0.610192 27.1354 -0.610192 23.1781 1.83058 20.7373Z" fill="white"/>
<path d="M20.5806 20.7373C23.0214 18.2965 26.9787 18.2965 29.4195 20.7373C31.8602 23.178 31.8602 27.1353 29.4195 29.5761C26.9787 32.0169 23.0214 32.0169 20.5806 29.5761C18.1399 27.1354 18.1399 23.1781 20.5806 20.7373Z" fill="white"/>
<path d="M39.3305 20.7373C41.7713 18.2965 45.7286 18.2965 48.1693 20.7373C50.6101 23.178 50.6101 27.1353 48.1693 29.5761C45.7286 32.0169 41.7713 32.0169 39.3305 29.5761C36.8897 27.1354 36.8897 23.1781 39.3305 20.7373Z" fill="white"/>
</g>
<g clip-path="url(#clip1)">
<path d="M1.83058 40.7373C4.27134 38.2965 8.22863 38.2965 10.6694 40.7373C13.1102 43.178 13.1102 47.1353 10.6694 49.5761C8.22863 52.0169 4.27134 52.0169 1.83058 49.5761C-0.610192 47.1354 -0.610192 43.1781 1.83058 40.7373Z" fill="white"/>
<path d="M20.5806 40.7373C23.0214 38.2965 26.9787 38.2965 29.4195 40.7373C31.8602 43.178 31.8602 47.1353 29.4195 49.5761C26.9787 52.0169 23.0214 52.0169 20.5806 49.5761C18.1399 47.1354 18.1399 43.1781 20.5806 40.7373" fill="white"/>
<path d="M39.3305 40.7373C41.7713 38.2965 45.7286 38.2965 48.1693 40.7373C50.6101 43.178 50.6101 47.1353 48.1693 49.5761C45.7286 52.0169 41.7713 52.0169 39.3305 49.5761C36.8897 47.1354 36.8897 43.1781 39.3305 40.7373" fill="white"/>
</g>
<g clip-path="url(#clip2)">
<path d="M1.83058 60.7373C4.27134 58.2965 8.22863 58.2965 10.6694 60.7373C13.1102 63.178 13.1102 67.1353 10.6694 69.5761C8.22863 72.0169 4.27134 72.0169 1.83058 69.5761C-0.610192 67.1354 -0.610192 63.1781 1.83058 60.7373Z" fill="white"/>
<path d="M20.5806 60.7373C23.0214 58.2965 26.9787 58.2965 29.4195 60.7373C31.8602 63.178 31.8602 67.1353 29.4195 69.5761C26.9787 72.0169 23.0214 72.0169 20.5806 69.5761C18.1399 67.1354 18.1399 63.1781 20.5806 60.7373" fill="white"/>
<path d="M39.3305 60.7373C41.7713 58.2965 45.7286 58.2965 48.1693 60.7373C50.6101 63.178 50.6101 67.1353 48.1693 69.5761C45.7286 72.0169 41.7713 72.0169 39.3305 69.5761C36.8897 67.1354 36.8897 63.1781 39.3305 60.7373" fill="white"/>
</g>
<defs>
<clipPath id="clip0">
<rect width="50" height="50" fill="white" transform="translate(0 50.1567) rotate(-90)"/>
</clipPath>
<clipPath id="clip1">
<rect width="50" height="50" fill="white" transform="translate(0 70.1567) rotate(-90)"/>
</clipPath>
<clipPath id="clip2">
<rect width="50" height="50" fill="white" transform="translate(0 90.1567) rotate(-90)"/>
</clipPath>
</defs>
</svg>
