<svg width="50" height="50" viewBox="0 0 50 50" fill="none" xmlns="http://www.w3.org/2000/svg">
<g clip-path="url(#clip0)">
<path d="M1.83055 20.5805C4.27131 18.1398 8.2286 18.1398 10.6694 20.5805C13.1101 23.0213 13.1101 26.9786 10.6694 29.4194C8.2286 31.8601 4.27131 31.8601 1.83055 29.4194C-0.610222 26.9787 -0.610222 23.0214 1.83055 20.5805Z" fill="white"/>
<path d="M20.5806 20.5805C23.0214 18.1398 26.9787 18.1398 29.4195 20.5805C31.8602 23.0213 31.8602 26.9786 29.4195 29.4194C26.9787 31.8601 23.0214 31.8601 20.5806 29.4194C18.1399 26.9787 18.1399 23.0214 20.5806 20.5805Z" fill="white"/>
<path d="M39.3305 20.5805C41.7713 18.1398 45.7286 18.1398 48.1693 20.5805C50.6101 23.0213 50.6101 26.9786 48.1693 29.4194C45.7286 31.8601 41.7713 31.8601 39.3305 29.4194C36.8897 26.9787 36.8897 23.0214 39.3305 20.5805Z" fill="white"/>
</g>
<defs>
<clipPath id="clip0">
<rect width="50" height="50" fill="white" transform="translate(0 50) rotate(-90)"/>
</clipPath>
</defs>
</svg>
