<svg width="40" height="40" viewBox="0 0 40 40" fill="none" xmlns="http://www.w3.org/2000/svg">
<path fill-rule="evenodd" clip-rule="evenodd" d="M39.3585 0.641482C38.5032 -0.213828 37.1165 -0.213827 36.2612 0.641483L20 16.9026L3.73883 0.641486C2.88352 -0.213824 1.49679 -0.213824 0.641482 0.641486C-0.213828 1.4968 -0.213827 2.88353 0.641483 3.73884L16.9027 20L0.641628 36.261C-0.213682 37.1163 -0.213682 38.5031 0.641628 39.3584C1.49694 40.2137 2.88367 40.2137 3.73898 39.3584L20 23.0974L36.261 39.3584C37.1163 40.2137 38.5031 40.2137 39.3584 39.3584C40.2137 38.5031 40.2137 37.1163 39.3584 36.261L23.0974 20L39.3585 3.73883C40.2138 2.88352 40.2138 1.49679 39.3585 0.641482Z" fill="white"/>
</svg>
